<?xml version="1.0" encoding="utf-8"?>
<!-- Generator: Adobe Illustrator 16.0.4, SVG Export Plug-In . SVG Version: 6.00 Build 0)  -->
<!DOCTYPE svg PUBLIC "-//W3C//DTD SVG 1.1//EN" "http://www.w3.org/Graphics/SVG/1.1/DTD/svg11.dtd">
<svg version="1.1" id="Layer_1" xmlns="http://www.w3.org/2000/svg" xmlns:xlink="http://www.w3.org/1999/xlink" x="0px" y="0px"
	 width="500px" height="152.5px" viewBox="0 0 500 152.5" enable-background="new 0 0 500 152.5" xml:space="preserve">
<path id="USGS" fill="#007150" d="M234.95,15.44v85.037c0,17.938-10.133,36.871-40.691,36.871
	c-27.569,0-40.859-14.281-40.859-36.871v-85.04h25.08v83.377c0,14.784,6.312,20.593,15.447,20.593
	c10.959,0,15.943-7.308,15.943-20.593V15.437h25.08 M275.74,137.348c-31.058,0-36.87-18.271-35.542-39.031h25.078
	c0,11.462,0.5,21.092,14.283,21.092c8.471,0,12.619-5.482,12.619-13.618c0-21.592-50.486-22.922-50.486-58.631
	c0-18.769,8.969-33.715,39.525-33.715c24.42,0,36.543,10.963,34.883,36.043h-24.419c0-8.974-1.491-18.106-11.627-18.106
	c-8.136,0-12.952,4.486-12.952,12.787c0,22.757,50.492,20.763,50.492,58.465c0,31.06-22.75,34.72-41.85,34.72 M444.344,137.354
	c-31.061,0-36.871-18.27-35.539-39.029h25.075c0,11.462,0.502,21.092,14.284,21.092c8.476,0,12.625-5.482,12.625-13.618
	c0-21.592-50.493-22.922-50.493-58.631c0-18.769,8.969-33.715,39.53-33.715c24.412,0,36.536,10.963,34.875,36.043h-24.412
	c0-8.974-1.493-18.106-11.625-18.106c-8.145,0-12.954,4.486-12.954,12.787c0,22.757,50.485,20.763,50.485,58.465
	c0,31.061-22.75,34.721-41.85,34.721 M364.455,90.677h14.761v26.462l-1.229,0.453c-3.814,1.332-8.301,2.327-12.452,2.327
	c-14.287,0-17.942-6.646-17.942-44.177c0-23.256,0-44.348,15.614-44.348c12.146,0,14.712,8.198,14.934,18.107h24.98
	c0.197-23.271-14.789-36.043-38.42-36.043c-41.021,0-42.521,30.724-42.521,60.954c0,45.507,4.938,63.167,47.12,63.167
	c9.784,0,25.359-2.211,32.554-4.181c0.438-0.114,1.212-0.596,1.212-1.217V72.584h-38.611v18.09"/>
<path id="waves" fill="#007150" d="M48.736,55.595l0.419,0.403c11.753,9.844,24.432,8.886,34.093,2.464
	c6.088-4.049,33.633-22.367,49.202-32.718V15.4H16.419v27.309C23.49,41.485,34.889,42.687,48.736,55.595 M92.386,101.02
	L78.681,87.878c-1.926-1.753-3.571-3.04-3.927-3.313c-11.204-7.867-21.646-5.476-26.149-3.802c-1.361,0.544-2.665,1.287-3.586,1.869
	l-28.602,19.13v34.666h116.029v-24.949c-2.55,1.619-18.27,10.119-40.062-10.461 M47.707,58.696
	c-0.619-0.578-1.305-1.194-1.915-1.698c-13.702-10.6-26.646-5.409-29.376-4.116v11.931l6.714-4.523c0,0,10.346-7.674,26.446,0.195
	L47.707,58.696 M63.735,74.105c-0.603-0.534-1.214-1.083-1.822-1.664c-12.157-10.285-23.908-7.67-28.781-5.864
	c-1.382,0.554-2.7,1.303-3.629,1.887l-13.086,8.754v12.288l21.888-14.748c0,0,10.229-7.589,26.166,0.054L63.735,74.105
	 M132.457,86.97c-4.563,3.078-9.203,6.203-11.048,7.441c-4.129,2.765-13.679,9.614-29.577,2.015l1.869,1.797
	c0.698,0.63,1.554,1.362,2.48,2.077c11.418,8.53,23.62,7.304,32.77,1.243c1.267-0.838,2.424-1.609,3.507-2.334V86.975
	 M132.458,62.365c-10.021,6.738-23.546,15.833-26.085,17.536c-4.127,2.765-13.82,9.708-29.379,2.273l1.804,1.729
	c0.205,0.19,0.409,0.375,0.612,0.571l-0.011,0.01l0.011-0.01c12.078,10.22,25.379,8.657,34.501,2.563
	c5.146-3.436,12.461-8.38,18.548-12.507l-0.01-12.165 M132.449,37.884c-14.452,9.682-38.162,25.568-41.031,27.493
	c-4.162,2.789-13.975,9.836-29.335,2.5l1.863,1.796c1.111,1.004,2.605,2.259,4.192,3.295c10.632,6.792,21.759,5.591,30.817-0.455
	c6.512-4.351,22.527-14.998,33.493-22.285V37.884"/>
</svg>
